
<svg id="main" xmlns="http://www.w3.org/2000/svg" version="1.1" xmlns:xlink="http://www.w3.org/1999/xlink" preserveAspectRatio="none" x="0px" y="0px" width="200px" height="200px" viewBox="0 0 200 200">
<defs>
<g id="Layer1_0_FILL">
<path fill="#000000" fill-opacity="0" stroke="none" d="
M 200 0
L 0 0 0 200 200 200 200 0 Z"/>
</g>

<g id="Layer0_0_FILL">
<path fill="" stroke="none" d="
M 51.7 159.5
L 55.4 153.75 45.7 153.75 45.7 159.5 51.7 159.5
M 66.4 136.45
L 70.15 130.7 45.7 130.7 45.7 136.45 66.4 136.45
M 126.35 159.5
L 126.35 153.75 99.9 153.75 80.55 159.5 126.35 159.5
M 126.35 136.45
L 126.35 134.65 124 136.45 126.35 136.45
M 45.7 107.65
L 45.7 113.45 85.75 113.45 93.4 107.65 45.7 107.65
M 116.25 90.25
L 123.6 84.65 45.7 84.65 45.7 90.25 116.25 90.25
M 143.75 67.2
L 143.75 69.3 149.5 64.9 149.5 61.45 103.3 15.35 22.65 15.35 22.65 188.3 149.5 188.3 149.5 117.05 143.75 121.45 143.75 182.55 28.4 182.55 28.4 21.1 97.7 21.1 97.7 67.2 143.75 67.2
M 103.3 61.45
L 103.3 23.5 141.4 61.45 103.3 61.45
M 45.7 61.45
L 45.7 67.2 80.25 67.2 80.25 61.45 45.7 61.45
M 45.7 38.4
L 45.7 44.15 80.25 44.15 80.25 38.4 45.7 38.4 Z"/>
</g>

<g id="Layer0_1_FILL">
<path fill="" stroke="none" d="
M 179.15 50.8
L 178.9 50.75 81.15 125.2 81.05 125.25 56.85 162.45 99.6 149.75 197.8 75.1 197.8 74.85
Q 196.274609375 55.905078125 179.15 50.8
M 162.5 68.9
L 179.8 55.9
Q 190.208984375 60.5740234375 192.65 73
L 175.25 86.1
Q 172.545703125 74.5318359375 162.5 68.9
M 105.35 138.55
Q 105.3498046875 137.2234375 104.5 136.5
L 104.45 136.45
Q 104.052734375 136.04375 103.4 135.8
L 160.7 92.05
Q 161.4443359375 93.93203125 162.1 96.35
L 105.05 139.95
Q 105.3595703125 139.1181640625 105.35 138.55
M 156.25 84.55
Q 157.7306640625 86.0841796875 158.6 87.95
L 100.5 132.4
Q 100.186328125 129.92734375 97.95 129
L 156.25 84.55
M 149.1 79.2
Q 150.9732421875 80.06328125 152.85 81.35
L 95.4 125.4
Q 95.20625 122.6 92.05 122.6 91.9611328125 122.59921875 91.85 122.6
L 149.1 79.2
M 75.2 152.4
L 71.65 147.85 83.8 128.7
Q 87.1865234375 126.1197265625 90.25 126.1 90.8853515625 126.0982421875 91.2 126.35
L 91.25 126.4
Q 91.4505859375 126.6990234375 91.45 127.25 91.398828125 129.9201171875 87.2 133.55
L 86.15 134.55 86.45 135 87.75 134.4
Q 92.615234375 132.075 94.2 132.05 95.483203125 132.04921875 96.15 132.6 96.751171875 133.16015625 96.75 134.25 96.6939453125 136.777734375 92.65 140.55
L 91.6 141.55 91.9 142 93.2 141.4
Q 98.121484375 138.97421875 100.1 138.95 100.851171875 138.9482421875 101.2 139.25
L 101.25 139.3
Q 101.503515625 139.5474609375 101.5 140.15 101.428515625 142.021875 96.9 146
L 75.2 152.4 Z"/>
</g>
</defs>

<g transform="matrix( 1, 0, 0, 1, 0,0) ">
<use xlink:href="#Layer1_0_FILL"/>
</g>

<g transform="matrix( 1, 0, 0, 1, 0,0) ">
<use xlink:href="#Layer0_0_FILL"/>
</g>

<g transform="matrix( 1, 0, 0, 1, 0,-0.8) ">
<use xlink:href="#Layer0_1_FILL"/>
</g>
</svg>
