<?xml version="1.0" encoding="UTF-8"?>
<!-- Generator: Adobe Illustrator 15.1.0, SVG Export Plug-In . SVG Version: 6.00 Build 0)  -->
<!DOCTYPE svg PUBLIC "-//W3C//DTD SVG 1.1//EN" "http://www.w3.org/Graphics/SVG/1.1/DTD/svg11.dtd">
<svg version="1.1" id="main" xmlns="http://www.w3.org/2000/svg" xmlns:xlink="http://www.w3.org/1999/xlink" x="0px" y="0px" width="99.13px" height="97.26px" viewBox="0 0 99.13 97.26" enable-background="new 0 0 99.13 97.26" xml:space="preserve">
<circle cx="50" cy="50" r="50" fill="#0000" />
<polygon fill="" points="80.334,62.027 2.5,27.527 5.333,21.027 80.334,60.527 "/>
<path fill="" d="M16.5,25.36c0,0,14.146-26.208,43.5-22.5c31.667,4,35.666,35,35.5,38.667S93.334,54.526,84.334,54.36  S73.666,53.027,61.5,32.027c-6.5-9.667-14.166-14.5-20.083-14.833S23.333,19.027,16.5,25.36z"/>
<path fill="" d="M96.63,50.447c-0.32,8.26-2.84,16.41-6.24,21.97c-7.319,11.971-21.555,24.19-42.765,22.11  c-22.14-2.18-38.845-24.01-35.875-45.25c0.6-4.26,2.92-10.41,6.5-13c0.338,2.768-0.255,3.845-0.375,6.375  c-0.12,2.66,0.358,7.401,1.125,9.875c8.25,26.625,58.625,28.125,73.31,5.08C93.913,55.089,94.389,53.227,96.63,50.447z"/>
</svg>